<svg xmlns="http://www.w3.org/2000/svg" width="273" height="193" fill="none" fill-rule="evenodd"><g fill-rule="nonzero"><path d="M154.983 120.64c-.198-.234-.483-.38-.8-.402a1.18 1.18 0 0 0-.842.277l-.344.297-4.455-5.086c14.528-17.682 14.983-42.924 1.103-61.11s-38.5-24.604-59.6-15.535-33.218 31.27-29.333 53.753 22.765 39.415 45.707 40.995a52.1 52.1 0 0 0 3.532.121 49.72 49.72 0 0 0 25.764-7.151l4.455 5.1-.344.297c-.473.415-.524 1.13-.113 1.607l41.72 47.805a1.16 1.16 0 0 0 .81.402h.08a1.16 1.16 0 0 0 .757-.281l13.524-11.65a1.14 1.14 0 0 0 .089-1.623l-41.72-47.805z" fill="#2b2b2b" opacity=".2"/><circle fill="#e9ecf2" transform="matrix(.707107 -.707107 .707107 .707107 -24.040354 97.922273)" cx="103.268" cy="78.188" r="48.449"/><path d="M104.573 130a51.35 51.35 0 0 1-3.51-.121c-22.348-1.557-40.865-17.93-45.146-39.918a49.5 49.5 0 0 1 26.87-53.941c20.13-9.828 44.354-4.91 59.06 11.99 12.722 14.625 15.737 35.33 7.715 52.974S123.956 129.97 104.573 130zm-.105-96.685c-22.2.028-41.38 15.528-46.065 37.228a47.19 47.19 0 0 0 26.6 52.917c20.21 9.186 44.092 3.04 57.36-14.76a47.19 47.19 0 0 0-2.245-59.184 47.01 47.01 0 0 0-35.649-16.202z" fill="#000"/><circle fill="#fff" transform="matrix(.707107 -.707107 .707107 .707107 -24.040354 97.922273)" cx="103.268" cy="78.188" r="36.863"/><path d="M104.02 118c-17.527.01-32.786-11.973-36.935-29.004s3.89-34.69 19.456-42.746 34.623-4.413 46.125 8.814c9.774 11.23 12.09 27.135 5.92 40.685s-19.68 22.25-34.567 22.25zm-.048-73.682a35.68 35.68 0 0 0-34.799 28.17c-3.53 16.407 4.847 33.058 20.127 39.996s33.328 2.288 43.354-11.17 9.32-32.085-1.7-44.744c-6.787-7.82-16.645-12.295-27-12.253h.016z" fill="#2b2b2b"/><path fill="#e9ecf2" d="M130.292 121.116l11.05-9.577 5.795 6.638-11.05 9.577z"/><path d="M136.28 129l-7.28-8.174L141.724 110l7.276 8.174L136.28 129zm-4.044-7.954l4.26 4.792 9.278-7.884-4.265-4.792-9.274 7.884z" fill="#000"/><path fill="#fff" d="M176.538 177L135 128.776 148.466 117 190 165.224z"/><path d="M176.475 178h-.084a1.12 1.12 0 0 1-.782-.403l-41.332-47.993c-.41-.478-.36-1.197.112-1.613l13.4-11.716c.477-.408 1.19-.356 1.605.117l41.332 47.993a1.16 1.16 0 0 1-.112 1.613l-13.387 11.72a1.15 1.15 0 0 1-.75.282zm-39.727-49.013l39.835 46.24 11.673-10.19-39.83-46.25-11.677 10.204z" fill="#2b2b2b"/><path d="M93.437 73l.932 1.503.663 1.144h.042l.652-1.156.92-1.5h1.3L95.7 76.387 98 80h-1.353l-.963-1.576-.705-1.212h-.027l-.7 1.212L93.3 80H92l2.33-3.57L92.1 73h1.338zm18 0l.936 1.504.663 1.144h.042l.648-1.157.924-1.492h1.284l-2.235 3.385L116 80h-1.352l-.962-1.577-.705-1.213h-.027l-.693 1.213-.947 1.577H110l2.33-3.57L110.1 73h1.326z" fill="#000"/><path d="M107.602 88a.37.37 0 0 1-.285-.145c-1.06-1.302-2.186-1.95-3.338-1.916-1.885.047-3.27 1.874-3.286 1.902-.144.194-.394.213-.558.042a.53.53 0 0 1-.036-.66c.063-.09 1.62-2.16 3.857-2.22 1.4-.047 2.708.703 3.932 2.202.112.135.144.336.082.51s-.207.287-.367.286z" fill="#231f20"/></g><g stroke="#dfe2e8" stroke-width="3"><circle cx="52.5" cy="7.5" r="5.5"/><circle cx="236.5" cy="152.5" r="5.5"/></g><circle fill="#e9ecf2" fill-rule="nonzero" cx="267.5" cy="46.5" r="5.5"/><g stroke="#dfe2e8" stroke-width="3"><path d="M1 106l11 5"/><path d="M4 114l6-11m179-74l-2 12"/><path d="M182 34l12 2"/></g><circle fill="#e9ecf2" fill-rule="nonzero" cx="79.5" cy="187.5" r="5.5"/></svg>